
<svg width="301px" height="48px" viewBox="0 0 301 48" version="1.1" xmlns="http://www.w3.org/2000/svg" xmlns:xlink="http://www.w3.org/1999/xlink">
  <g id="Symbols" stroke="none" stroke-width="1" fill="none" fill-rule="evenodd">
    <g id="1024+" transform="translate(-32.000000, -40.000000)" fill="#012169">
      <g id="Carlos-Logo">
        <g id="logo/carlos" transform="translate(32.000000, 40.000000)">
          <g id="logo_carlos_horizontal">
            <g id="MCCM" transform="translate(196.120690, 1.739671)">
              <g id="Group-2">
                <path d="M5.23275862,7.92376514 C5.16293103,8.04597701 5.07543103,8.08033551 5.00689655,8.08033551 C4.92198276,8.08033551 4.85387931,8.02640572 4.78232759,7.87244486 L2.31293103,2.58993476 L2.20862069,2.58993476 C2.19267241,3.16533085 2.10474138,4.05386766 2.10474138,6.28456042 C2.10474138,7.33184219 2.225,7.57539609 2.8125,7.82112457 C3.01896552,7.90680336 3.24525862,7.88897173 3.24525862,8.09816713 C3.24525862,8.1860205 3.15818966,8.22124884 3.0362069,8.22124884 C2.6237069,8.22124884 2.20862069,8.15079217 1.79353448,8.15079217 C1.275,8.15079217 0.756034483,8.22124884 0.462931034,8.22124884 C0.394827586,8.22124884 0.324568966,8.1860205 0.324568966,8.09816713 C0.324568966,7.82112457 1.20646552,7.94116185 1.34396552,7.17570674 C1.50043103,6.23367505 1.62112069,3.39105312 1.62112069,2.03280522 C1.62112069,0.497110904 0.240517241,0.916806462 0.240517241,0.497110904 C0.240517241,0.409257533 0.290517241,0.306182044 0.42887931,0.306182044 C0.739655172,0.306182044 0.963793103,0.375333955 1.275,0.375333955 C1.69051724,0.375333955 2.01853448,0.306182044 2.27672414,0.306182044 C2.41551724,0.306182044 2.50215517,0.409257533 2.57198276,0.550605778 L5.33405172,6.26759863 L5.4737069,6.26759863 L8.28965517,0.775458217 C8.39224138,0.585399192 8.48017241,0.375333955 8.6,0.375333955 L9.32715517,0.375333955 C9.60431034,0.375333955 9.8112069,0.358807083 9.98318966,0.341845294 C10.1573276,0.324013669 10.2603448,0.306182044 10.312069,0.306182044 C10.3969828,0.306182044 10.4844828,0.392730662 10.4844828,0.497110904 C10.4844828,0.882447965 9.31034483,0.497110904 9.31034483,1.80490836 C9.31034483,3.11314073 9.44655172,5.30990991 9.44655172,6.80994098 C9.44655172,8.06337372 10.6741379,7.7158745 10.6741379,8.09816713 C10.6741379,8.16905871 10.6396552,8.22124884 10.5025862,8.22124884 C10.1051724,8.22124884 9.5,8.15079217 8.91034483,8.15079217 C8.39224138,8.15079217 7.97931034,8.22124884 7.65043103,8.22124884 C7.46077586,8.22124884 7.33836207,8.20385213 7.33836207,8.08033551 C7.33836207,7.73196645 8.18577586,7.88897173 8.18577586,6.94694004 L8.18577586,2.36247282 L8.08189655,2.39987574 L5.23275862,7.92376514 Z" id="Fill-1"></path>
                <path d="M16.850431,1.43914259 C16.850431,0.514072693 15.5211207,0.775458217 15.5211207,0.461882572 C15.5211207,0.375333955 15.575,0.306182044 15.7633621,0.306182044 C16.2297414,0.306182044 16.7655172,0.375333955 17.3021552,0.375333955 C17.8538793,0.375333955 18.4594828,0.306182044 18.9771552,0.306182044 C19.0806034,0.306182044 19.1487069,0.358807083 19.1487069,0.445355701 C19.1487069,0.898539919 18.1125,0.497110904 18.1125,1.33563218 L18.1125,7.08698354 C18.1125,8.01205343 19.462069,7.74849332 19.462069,8.06337372 C19.462069,8.15079217 19.4081897,8.22124884 19.2185345,8.22124884 C18.7517241,8.22124884 18.2168103,8.15079217 17.6814655,8.15079217 C17.1262931,8.15079217 16.524569,8.22124884 16.0060345,8.22124884 C15.9017241,8.22124884 15.8314655,8.16905871 15.8314655,8.08033551 C15.8314655,7.62758621 16.850431,8.02640572 16.850431,7.1917987 L16.850431,1.43914259 Z" id="Fill-3"></path>
                <path d="M28.5913793,7.69804287 C29.9051724,7.69804287 30.8543103,6.96390183 31.2012931,6.56377757 C31.2887931,6.46070208 31.3568966,6.35501709 31.4943966,6.35501709 C31.5642241,6.35501709 31.65,6.40633737 31.65,6.52985399 C31.65,6.77253806 30.3883621,8.28996583 28.0905172,8.28996583 C25.7405172,8.28996583 24.2719828,6.73904939 24.2719828,4.47269338 C24.2719828,1.99627213 26.2780172,0.236160298 28.6103448,0.236160298 C29.1107759,0.236160298 29.6103448,0.392730662 30.0443966,0.531034483 C30.4737069,0.689779435 30.8206897,0.848089469 30.9762931,0.848089469 C31.2521552,0.848089469 31.4599138,0.63628456 31.5116379,0.63628456 C31.5965517,0.63628456 31.6327586,0.689779435 31.6327586,0.951164958 C31.6327586,1.75358807 31.7706897,2.86741224 31.7706897,3.11314073 C31.7706897,3.25318422 31.7021552,3.32233613 31.5806034,3.32233613 C31.4435345,3.32233613 31.3896552,3.21665113 31.2521552,2.81652687 C30.8719828,1.73619136 29.974569,0.619322771 28.4875,0.619322771 C26.5698276,0.619322771 25.5344828,2.1528425 25.5344828,3.98515067 C25.5344828,6.82646785 27.2443966,7.69804287 28.5913793,7.69804287" id="Fill-4"></path>
                <path d="M44.1487069,7.08698354 C44.1487069,8.01205343 45.4956897,7.74849332 45.4956897,8.06337372 C45.4956897,8.15079217 45.4431034,8.22124884 45.2530172,8.22124884 C44.7875,8.22124884 44.2512931,8.15079217 43.7155172,8.15079217 C43.1625,8.15079217 42.5586207,8.22124884 42.0396552,8.22124884 C41.9344828,8.22124884 41.8663793,8.16905871 41.8663793,8.08033551 C41.8663793,7.62758621 42.8857759,8.02640572 42.8857759,7.1917987 L42.8857759,4.71624728 C42.8857759,4.49052501 42.8,4.36787822 42.6431034,4.36787822 L38.7926724,4.36787822 C38.6366379,4.36787822 38.549569,4.49052501 38.549569,4.71624728 L38.549569,7.08698354 C38.549569,8.01205343 39.8974138,7.74849332 39.8974138,8.06337372 C39.8974138,8.15079217 39.8456897,8.22124884 39.6556034,8.22124884 C39.1896552,8.22124884 38.6547414,8.15079217 38.1185345,8.15079217 C37.5642241,8.15079217 36.9590517,8.22124884 36.4422414,8.22124884 C36.3396552,8.22124884 36.2693966,8.16905871 36.2693966,8.08033551 C36.2693966,7.62758621 37.2896552,8.02640572 37.2896552,7.1917987 L37.2896552,1.43914259 C37.2896552,0.514072693 35.9590517,0.775458217 35.9590517,0.461882572 C35.9590517,0.375333955 36.0107759,0.306182044 36.199569,0.306182044 C36.6663793,0.306182044 37.2025862,0.375333955 37.7383621,0.375333955 C38.2918103,0.375333955 38.8948276,0.306182044 39.412931,0.306182044 C39.5181034,0.306182044 39.5875,0.358807083 39.5875,0.445355701 C39.5875,0.898539919 38.549569,0.497110904 38.549569,1.33563218 L38.549569,3.40975458 C38.549569,3.63678161 38.6366379,3.75812364 38.7926724,3.75812364 L42.6431034,3.75812364 C42.8,3.75812364 42.8857759,3.63678161 42.8857759,3.40975458 L42.8857759,1.43914259 C42.8857759,0.514072693 41.5568966,0.775458217 41.5568966,0.461882572 C41.5568966,0.375333955 41.6077586,0.306182044 41.7982759,0.306182044 C42.2659483,0.306182044 42.8,0.375333955 43.3349138,0.375333955 C43.8896552,0.375333955 44.4935345,0.306182044 45.0103448,0.306182044 C45.1150862,0.306182044 45.1844828,0.358807083 45.1844828,0.445355701 C45.1844828,0.898539919 44.1487069,0.497110904 44.1487069,1.33563218 L44.1487069,7.08698354 Z" id="Fill-5"></path>
                <path d="M54.7814655,5.37819199 C55.025431,5.37819199 55.0935345,5.50127369 55.2331897,5.78092575 C55.6642241,6.65293569 55.750431,6.89518484 55.750431,7.12177695 C55.750431,7.92376514 54.8530172,7.7158745 54.8530172,8.04597701 C54.8530172,8.16905871 54.9047414,8.22124884 55.0396552,8.22124884 C55.5762931,8.22124884 56.1814655,8.15079217 56.749569,8.15079217 C57.2202586,8.15079217 57.7366379,8.22124884 58.0655172,8.22124884 C58.3405172,8.22124884 58.4801724,8.16905871 58.4801724,8.02640572 C58.4801724,7.74849332 57.4603448,7.88897173 57.0991379,7.01826654 C56.3375,5.20422491 55.025431,2.1528425 54.1965517,0.497110904 C54.1267241,0.358807083 54.1086207,0.236160298 53.9875,0.236160298 C53.9021552,0.236160298 53.8306034,0.358807083 53.6922414,0.602360982 C53.2969828,1.2990991 51.9663793,3.47890649 50.325,6.79210935 C49.7538793,7.94116185 49.0637931,7.85504815 49.0637931,8.09816713 C49.0637931,8.20385213 49.1142241,8.22124884 49.2185345,8.22124884 C49.4788793,8.22124884 50.1349138,8.15079217 50.6176724,8.15079217 C51.2241379,8.15079217 51.7073276,8.22124884 52.0702586,8.22124884 C52.2426724,8.22124884 52.3094828,8.15079217 52.3094828,8.04597701 C52.3094828,7.88897173 52.174569,7.85504815 51.8814655,7.83765144 C51.3258621,7.78676608 50.9625,7.5584343 50.9625,7.12177695 C50.9625,6.94694004 51.0521552,6.68685927 51.5344828,5.76091954 C51.6719828,5.50127369 51.7926724,5.37819199 51.9844828,5.37819199 L54.7814655,5.37819199 Z M54.5913793,4.28219944 C54.6607759,4.42180801 54.7482759,4.54097546 54.7482759,4.61186704 C54.7482759,4.68058403 54.6948276,4.71624728 54.6262931,4.71624728 L52.3306034,4.71624728 C52.2603448,4.71624728 52.2077586,4.68058403 52.2077586,4.61186704 C52.2077586,4.54097546 52.2931034,4.42180801 52.3616379,4.28219944 L53.3172414,2.50164647 C53.4172414,2.3102827 53.4344828,2.17067412 53.5232759,2.17067412 C53.5737069,2.17067412 53.6077586,2.29245107 53.7625,2.60733147 L54.5913793,4.28219944 Z" id="Fill-6"></path>
                <path d="M65.0142241,6.92910842 C65.0142241,7.45318422 65.4116379,7.62758621 66.362931,7.62758621 C68.712069,7.62758621 69.0913793,6.33762038 69.3172414,6.33762038 C69.4038793,6.33762038 69.4375,6.42590867 69.4375,6.52985399 C69.4375,6.73904939 69.2306034,7.4723206 68.7297414,7.88897173 C68.4176724,8.15079217 68.1577586,8.22124884 67.3987069,8.22124884 C66.7586207,8.22124884 66.1025862,8.15079217 65.2728448,8.15079217 C64.4625,8.15079217 63.5625,8.22124884 62.9758621,8.22124884 C62.8047414,8.22124884 62.6465517,8.16905871 62.6465517,8.06337372 C62.6465517,7.68108108 63.7508621,8.06337372 63.7508621,6.96390183 L63.7508621,1.57788133 C63.7508621,0.568437403 62.5956897,0.848089469 62.5956897,0.479279279 C62.5956897,0.358807083 62.6991379,0.306182044 62.8728448,0.306182044 C63.5797414,0.306182044 64.6857759,0.375333955 65.7573276,0.375333955 C66.9659483,0.375333955 68.4892241,0.306182044 68.6939655,0.306182044 C68.799569,0.306182044 68.8668103,0.409257533 68.8668103,0.479279279 C68.8668103,0.689779435 68.850431,0.96769183 68.850431,1.99627213 C68.850431,2.2045977 68.7801724,2.27635912 68.6616379,2.27635912 C68.5215517,2.27635912 68.4715517,1.97931034 68.4357759,1.77054986 C68.3327586,1.14209382 67.6922414,0.898539919 66.3788793,0.898539919 C65.4814655,0.898539919 65.0142241,0.898539919 65.0142241,1.40434918 L65.0142241,3.75812364 L66.6034483,3.75812364 C67.85,3.75812364 67.5375,2.7482448 67.9168103,2.7482448 C68.0387931,2.7482448 68.1090517,2.83305374 68.1090517,2.93873874 C68.1090517,3.14793414 68.0564655,3.49586828 68.0564655,3.86119913 C68.0564655,4.40397639 68.0887931,4.89064927 68.0887931,5.34426841 C68.0887931,5.53563218 68.0206897,5.60565393 67.8659483,5.60565393 C67.5375,5.60565393 67.8318966,4.40397639 66.6396552,4.40397639 L65.0142241,4.40397639 L65.0142241,6.92910842 Z" id="Fill-7"></path>
                <path d="M75.9784483,1.50698975 C75.9784483,0.585399192 74.7340517,0.898539919 74.7340517,0.514072693 C74.7340517,0.375333955 74.8232759,0.306182044 74.9435345,0.306182044 C75.3732759,0.306182044 75.8564655,0.375333955 76.5646552,0.375333955 C77.3107759,0.375333955 77.775,0.306182044 78.0849138,0.306182044 C78.174569,0.306182044 78.2775862,0.375333955 78.2775862,0.479279279 C78.2775862,0.793289842 77.2392241,0.670643057 77.2392241,1.61310966 L77.2392241,7.1917987 C77.2392241,7.60931966 77.4456897,7.69804287 78.4314655,7.69804287 C80.9030172,7.69804287 81.1797414,6.37284871 81.4206897,6.37284871 C81.5056034,6.37284871 81.5961207,6.46070208 81.5961207,6.63379932 C81.5961207,8.28996583 80.1762931,8.27256912 79.4676724,8.27256912 C79.1383621,8.27256912 78.7086207,8.25604225 78.2939655,8.22124884 C77.862931,8.1860205 77.4284483,8.15079217 77.1034483,8.15079217 C76.6866379,8.15079217 76.3258621,8.16905871 76.0465517,8.1860205 C75.7530172,8.20385213 75.5461207,8.22124884 75.3732759,8.22124884 C75.1310345,8.22124884 75.0271552,8.20385213 75.0271552,8.08033551 C75.0271552,7.74849332 75.9784483,7.92376514 75.9784483,7.05305996 L75.9784483,1.50698975 Z" id="Fill-8"></path>
                <path d="M97.8426724,7.69804287 C99.1538793,7.69804287 100.107328,6.96390183 100.452155,6.56377757 C100.536207,6.46070208 100.608621,6.35501709 100.745259,6.35501709 C100.813793,6.35501709 100.900431,6.40633737 100.900431,6.52985399 C100.900431,6.77253806 99.6409483,8.28996583 97.3435345,8.28996583 C94.9931034,8.28996583 93.5215517,6.73904939 93.5215517,4.47269338 C93.5215517,1.99627213 95.5258621,0.236160298 97.8586207,0.236160298 C98.3616379,0.236160298 98.8625,0.392730662 99.2956897,0.531034483 C99.7267241,0.689779435 100.071983,0.848089469 100.230603,0.848089469 C100.502586,0.848089469 100.711638,0.63628456 100.763362,0.63628456 C100.847414,0.63628456 100.88319,0.689779435 100.88319,0.951164958 C100.88319,1.75358807 101.023276,2.86741224 101.023276,3.11314073 C101.023276,3.25318422 100.955172,3.32233613 100.831466,3.32233613 C100.694828,3.32233613 100.642241,3.21665113 100.502586,2.81652687 C100.124138,1.73619136 99.2275862,0.619322771 97.7392241,0.619322771 C95.8202586,0.619322771 94.7849138,2.1528425 94.7849138,3.98515067 C94.7849138,6.82646785 96.4952586,7.69804287 97.8426724,7.69804287" id="Fill-9"></path>
                <path d="M102.911638,6.49593041 C103.275862,6.07536502 103.223707,5.91879466 103.44569,5.91879466 C103.688793,5.91879466 103.620259,6.07536502 104.000862,6.49593041 C104.328448,6.86082634 104.55431,6.80994098 104.55431,7.03522833 C104.55431,7.26138552 104.328448,7.24442373 104.000862,7.62758621 C103.620259,7.97552035 103.688793,8.15079217 103.44569,8.15079217 C103.223707,8.15079217 103.275862,7.97552035 102.911638,7.62758621 C102.566379,7.24442373 102.34181,7.26138552 102.34181,7.03522833 C102.34181,6.80994098 102.566379,6.86082634 102.911638,6.49593041" id="Fill-10"></path>
              </g>
              <g id="Group-4" transform="translate(0.000000, 33.923579)">
                <path d="M7.76637931,11.7319043 C7.66293103,11.9163094 7.53362069,11.9693694 7.42931034,11.9693694 C7.30043103,11.9693694 7.19612069,11.8897794 7.09267241,11.6540541 L3.38836207,3.735073 L3.23405172,3.735073 C3.20732759,4.59751476 3.07801724,5.93097235 3.07801724,9.27548928 C3.07801724,10.8442373 3.25948276,11.2113079 4.14051724,11.5779435 C4.4512931,11.7062442 4.78706897,11.6801491 4.78706897,11.9945946 C4.78706897,12.124635 4.65862069,12.1759553 4.47543103,12.1759553 C3.85387931,12.1759553 3.23405172,12.0720099 2.61293103,12.0720099 C1.83491379,12.0720099 1.05689655,12.1759553 0.61637931,12.1759553 C0.513362069,12.1759553 0.410775862,12.124635 0.410775862,11.9945946 C0.410775862,11.5779435 1.73103448,11.7588692 1.93793103,10.608512 C2.17241379,9.19676918 2.3512931,4.93718546 2.3512931,2.89959615 C2.3512931,0.598011805 0.280172414,1.2277726 0.280172414,0.598011805 C0.280172414,0.46797142 0.357758621,0.311835974 0.565948276,0.311835974 C1.03146552,0.311835974 1.37025862,0.417086052 1.83491379,0.417086052 C2.45646552,0.417086052 2.94741379,0.311835974 3.3375,0.311835974 C3.54525862,0.311835974 3.67284483,0.46797142 3.77672414,0.677166822 L7.92155172,9.24939422 L8.12887931,9.24939422 L12.3525862,1.01770736 C12.5068966,0.729791861 12.6357759,0.417086052 12.8181034,0.417086052 L13.9047414,0.417086052 C14.3211207,0.417086052 14.6301724,0.390556073 14.8900862,0.364461013 C15.1487069,0.338365952 15.3034483,0.311835974 15.3806034,0.311835974 C15.5112069,0.311835974 15.6400862,0.442746194 15.6400862,0.598011805 C15.6400862,1.17471264 13.8784483,0.598011805 13.8784483,2.55949053 C13.8784483,4.52009941 14.0857759,7.81155638 14.0857759,10.0609506 C14.0857759,11.9428394 15.9232759,11.4200683 15.9232759,11.9945946 C15.9232759,12.0994098 15.8741379,12.1759553 15.6668103,12.1759553 C15.0711207,12.1759553 14.1642241,12.0720099 13.2827586,12.0720099 C12.5068966,12.0720099 11.8849138,12.1759553 11.3918103,12.1759553 C11.1081897,12.1759553 10.9262931,12.1520348 10.9262931,11.9693694 C10.9262931,11.4465983 12.1956897,11.6801491 12.1956897,10.2684063 L12.1956897,3.39496738 L12.0405172,3.4471575 L7.76637931,11.7319043 Z" id="Fill-11"></path>
                <path d="M32.8892241,2.4555452 C32.8892241,0.624976701 30.7646552,1.14774775 30.7918103,0.598011805 C30.7918103,0.417086052 30.9211207,0.311835974 31.1275862,0.311835974 C31.5676724,0.311835974 32.2935345,0.417086052 33.0956897,0.417086052 C33.8987069,0.417086052 34.6241379,0.311835974 34.9353448,0.311835974 C35.0905172,0.311835974 35.1948276,0.390556073 35.1948276,0.571046909 C35.1948276,0.990742467 33.925431,0.624976701 33.8737069,2.1406648 L33.6668103,7.42056539 C33.5625,10.1401056 32.1892241,12.2807704 28.4353448,12.2807704 C25.5599138,12.2807704 23.2793103,11.1317179 23.2793103,8.25647717 L23.2793103,2.5860205 C23.2793103,1.54047841 23.0465517,1.2277726 22.3728448,0.990742467 C21.7762931,0.780677229 21.2844828,0.755452004 21.2844828,0.545386766 C21.2844828,0.417086052 21.362931,0.311835974 21.6465517,0.311835974 C22.3469828,0.311835974 23.149569,0.417086052 23.9530172,0.417086052 C24.7818966,0.417086052 25.6883621,0.311835974 26.4650862,0.311835974 C26.6198276,0.311835974 26.724569,0.390556073 26.724569,0.520161541 C26.724569,0.860702081 26.2051724,0.780677229 25.7659483,1.01770736 C25.325,1.2277726 25.1706897,1.6435539 25.1706897,2.34855545 L25.1706897,7.89158124 C25.1706897,10.0609506 26.3094828,11.4465983 28.5112069,11.4465983 C32.0327586,11.4465983 32.8892241,9.56296987 32.8892241,6.16626281 L32.8892241,2.4555452 Z" id="Fill-12"></path>
                <path d="M47.8344828,0.545386766 C48.3525862,0.729791861 48.7405172,0.886362224 48.975,0.886362224 C49.5693966,0.886362224 49.3625,0.520161541 49.5961207,0.520161541 C49.699569,0.520161541 49.7517241,0.624976701 49.7517241,0.808077043 C49.7517241,1.17471264 49.699569,1.82839391 49.699569,2.37595527 C49.699569,2.82131097 49.7517241,3.76160298 49.7517241,4.15302889 C49.7517241,4.39005902 49.5961207,4.44094439 49.4913793,4.44094439 C49.337069,4.44094439 49.2336207,4.12780367 49.1301724,3.81335819 C48.8181034,2.89959615 48.1448276,0.938117428 45.8913793,0.938117428 C44.5452586,0.938117428 43.5612069,1.6435539 43.5612069,2.79565082 C43.5612069,5.51301646 49.9323276,4.70232992 49.9323276,8.62311277 C49.9323276,10.6363467 48.300431,12.2807704 45.6318966,12.2807704 C44.3625,12.2807704 43.5077586,12.0994098 42.5508621,11.6018639 C42.187931,11.4200683 42.162069,11.3152532 42.1086207,10.8442373 C42.0327586,10.0357254 41.6181034,8.70183287 41.6181034,8.17775707 C41.6181034,7.96812675 41.7487069,7.81155638 41.9297414,7.81155638 C42.162069,7.81155638 42.2646552,7.96812675 42.4211207,8.51873253 C42.7318966,9.58906493 44.0025862,11.5509786 45.9693966,11.5509786 C47.3672414,11.5509786 48.4810345,10.8181423 48.4810345,9.40509475 C48.4810345,6.47853371 42.1086207,7.34097546 42.1086207,3.57893756 C42.1086207,1.9045045 43.4568966,0.207455732 45.8913793,0.207455732 C46.6431034,0.207455732 47.2896552,0.364461013 47.8344828,0.545386766" id="Fill-13"></path>
                <path d="M59.0012931,10.2427462 C59.0012931,11.0269028 59.5978448,11.289593 61.0202586,11.289593 C64.5452586,11.289593 65.1133621,9.35377446 65.450431,9.35377446 C65.5797414,9.35377446 65.6323276,9.4851196 65.6323276,9.6425598 C65.6323276,9.95613545 65.3215517,11.0538677 64.5685345,11.6801491 C64.1034483,12.0720099 63.7142241,12.1759553 62.575,12.1759553 C61.6159483,12.1759553 60.6336207,12.0720099 59.3900862,12.0720099 C58.1715517,12.0720099 56.824569,12.1759553 55.9443966,12.1759553 C55.6840517,12.1759553 55.4521552,12.0994098 55.4521552,11.9428394 C55.4521552,11.3670084 57.1094828,11.9428394 57.1094828,10.2949363 L57.1094828,2.21894998 C57.1094828,0.703261883 55.3741379,1.12165269 55.3741379,0.571046909 C55.3741379,0.390556073 55.5310345,0.311835974 55.787931,0.311835974 C56.85,0.311835974 58.5090517,0.417086052 60.1142241,0.417086052 C61.9271552,0.417086052 64.2073276,0.311835974 64.5168103,0.311835974 C64.674569,0.311835974 64.7758621,0.46797142 64.7758621,0.571046909 C64.7758621,0.886362224 64.7508621,1.30562286 64.7508621,2.84566636 C64.7508621,3.16011184 64.6461207,3.264927 64.4655172,3.264927 C64.2599138,3.264927 64.1818966,2.82131097 64.1293103,2.50686549 C63.9741379,1.56657347 63.0137931,1.20037279 61.0474138,1.20037279 C59.7017241,1.20037279 59.0012931,1.20037279 59.0012931,1.95886921 L59.0012931,5.48561665 L61.3844828,5.48561665 C63.2482759,5.48561665 62.7823276,3.9712333 63.3530172,3.9712333 C63.5336207,3.9712333 63.6383621,4.10083877 63.6383621,4.2591488 C63.6383621,4.57185461 63.5594828,5.09332091 63.5594828,5.64392669 C63.5594828,6.45156881 63.6116379,7.18397018 63.6116379,7.86331159 C63.6116379,8.15253184 63.5086207,8.25647717 63.2741379,8.25647717 C62.7823276,8.25647717 63.2232759,6.45156881 61.4362069,6.45156881 L59.0012931,6.45156881 L59.0012931,10.2427462 Z" id="Fill-14"></path>
                <path d="M82.1366379,2.4555452 C82.1366379,0.624976701 80.0103448,1.14774775 80.037931,0.598011805 C80.037931,0.417086052 80.1681034,0.311835974 80.3741379,0.311835974 C80.8150862,0.311835974 81.5392241,0.417086052 82.3439655,0.417086052 C83.1448276,0.417086052 83.8719828,0.311835974 84.1823276,0.311835974 C84.3387931,0.311835974 84.4405172,0.390556073 84.4405172,0.571046909 C84.4405172,0.990742467 83.1715517,0.624976701 83.1206897,2.1406648 L82.9112069,7.42056539 C82.8068966,10.1401056 81.4349138,12.2807704 77.6793103,12.2807704 C74.8056034,12.2807704 72.525431,11.1317179 72.525431,8.25647717 L72.525431,2.5860205 C72.525431,1.54047841 72.2939655,1.2277726 71.6176724,0.990742467 C71.0232759,0.780677229 70.5314655,0.755452004 70.5314655,0.545386766 C70.5314655,0.417086052 70.6090517,0.311835974 70.8943966,0.311835974 C71.5935345,0.311835974 72.3956897,0.417086052 73.1987069,0.417086052 C74.0288793,0.417086052 74.9353448,0.311835974 75.7125,0.311835974 C75.8672414,0.311835974 75.9715517,0.390556073 75.9715517,0.520161541 C75.9715517,0.860702081 75.4525862,0.780677229 75.0137931,1.01770736 C74.5724138,1.2277726 74.4172414,1.6435539 74.4172414,2.34855545 L74.4172414,7.89158124 C74.4172414,10.0609506 75.5568966,11.4465983 77.7581897,11.4465983 C81.2806034,11.4465983 82.1366379,9.56296987 82.1366379,6.16626281 L82.1366379,2.4555452 Z" id="Fill-15"></path>
                <path d="M96.0232759,11.7319043 C95.9189655,11.9163094 95.7887931,11.9693694 95.6857759,11.9693694 C95.5551724,11.9693694 95.4517241,11.8897794 95.3469828,11.6540541 L91.6448276,3.735073 L91.4887931,3.735073 C91.462931,4.59751476 91.3331897,5.93097235 91.3331897,9.27548928 C91.3331897,10.8442373 91.5155172,11.2113079 92.3943966,11.5779435 C92.7060345,11.7062442 93.0435345,11.6801491 93.0435345,11.9945946 C93.0435345,12.124635 92.9146552,12.1759553 92.7331897,12.1759553 C92.1094828,12.1759553 91.4887931,12.0720099 90.8659483,12.0720099 C90.0896552,12.0720099 89.3116379,12.1759553 88.8737069,12.1759553 C88.7706897,12.1759553 88.6650862,12.124635 88.6650862,11.9945946 C88.6650862,11.5779435 89.9875,11.7588692 90.1952586,10.608512 C90.425,9.19676918 90.6107759,4.93718546 90.6107759,2.89959615 C90.6107759,0.598011805 88.5357759,1.2277726 88.5357759,0.598011805 C88.5357759,0.46797142 88.6137931,0.311835974 88.8211207,0.311835974 C89.2857759,0.311835974 89.6224138,0.417086052 90.0896552,0.417086052 C90.7090517,0.417086052 91.2034483,0.311835974 91.5926724,0.311835974 C91.8008621,0.311835974 91.9271552,0.46797142 92.0310345,0.677166822 L96.1780172,9.24939422 L96.3823276,9.24939422 L100.603448,1.01770736 C100.760345,0.729791861 100.890517,0.417086052 101.071552,0.417086052 L102.159914,0.417086052 C102.575431,0.417086052 102.885776,0.390556073 103.146121,0.364461013 C103.405172,0.338365952 103.562069,0.311835974 103.637069,0.311835974 C103.765517,0.311835974 103.895259,0.442746194 103.895259,0.598011805 C103.895259,1.17471264 102.13319,0.598011805 102.13319,2.55949053 C102.13319,4.52009941 102.340517,7.81155638 102.340517,10.0609506 C102.340517,11.9428394 104.181897,11.4200683 104.181897,11.9945946 C104.181897,12.0994098 104.12931,12.1759553 103.921983,12.1759553 C103.327586,12.1759553 102.419397,12.0720099 101.540086,12.0720099 C100.760345,12.0720099 100.141379,12.1759553 99.6465517,12.1759553 C99.3612069,12.1759553 99.1831897,12.1520348 99.1831897,11.9693694 C99.1831897,11.4465983 100.452155,11.6801491 100.452155,10.2684063 L100.452155,3.39496738 L100.297414,3.4471575 L96.0232759,11.7319043 Z" id="Fill-16"></path>
              </g>
              <g id="Group-3" transform="translate(0.000000, 14.787201)">
                <path d="M6.87844828,11.5296676 C8.85517241,11.5296676 10.2840517,10.4280211 10.8043103,9.82305064 C10.9353448,9.66604536 11.0392241,9.51034483 11.2465517,9.51034483 C11.3491379,9.51034483 11.4814655,9.58776017 11.4814655,9.77129543 C11.4814655,10.1388009 9.58232759,12.4216838 6.12413793,12.4216838 C2.5875,12.4216838 0.376724138,10.0857409 0.376724138,6.6751165 C0.376724138,2.94961168 3.39396552,0.298788444 6.90344828,0.298788444 C7.65862069,0.298788444 8.41206897,0.53538366 9.0625,0.745448897 C9.71206897,0.982913948 10.2318966,1.21646474 10.4668103,1.21646474 C10.8831897,1.21646474 11.1956897,0.902889096 11.2715517,0.902889096 C11.4030172,0.902889096 11.4543103,0.982913948 11.4543103,1.37564461 C11.4543103,2.58167133 11.662931,4.26088847 11.662931,4.62926375 C11.662931,4.83932898 11.5599138,4.94327431 11.3775862,4.94327431 C11.1685345,4.94327431 11.0909483,4.78583411 10.8831897,4.18390805 C10.3103448,2.55514135 8.95948276,0.876794035 6.72198276,0.876794035 C3.83577586,0.876794035 2.27543103,3.18577198 2.27543103,5.94010562 C2.27543103,10.2183908 4.84913793,11.5296676 6.87844828,11.5296676" id="Fill-17"></path>
                <path d="M26.0211207,8.04032308 C26.3844828,8.04032308 26.4887931,8.22342342 26.6969828,8.64398882 C27.3474138,9.95526561 27.4780172,10.3223361 27.4780172,10.6646163 C27.4780172,11.8702081 26.1258621,11.5566325 26.1258621,12.0546132 C26.1258621,12.2390183 26.2030172,12.3173035 26.4112069,12.3173035 C27.2181034,12.3173035 28.1271552,12.2103138 28.9849138,12.2103138 C29.687069,12.2103138 30.4685345,12.3173035 30.9607759,12.3173035 C31.3788793,12.3173035 31.5862069,12.2390183 31.5862069,12.0272134 C31.5862069,11.6079528 30.0517241,11.8175831 29.5060345,10.508046 C28.362069,7.77676297 26.3844828,3.18577198 25.137931,0.694128611 C25.0327586,0.483193538 25.0068966,0.298788444 24.825431,0.298788444 C24.6948276,0.298788444 24.5905172,0.483193538 24.3836207,0.850264057 C23.7840517,1.90059025 21.7823276,5.18117428 19.3103448,10.1657658 C18.4534483,11.8967381 17.4150862,11.7666977 17.4150862,12.1324635 C17.4150862,12.2916434 17.4909483,12.3173035 17.6474138,12.3173035 C18.0375,12.3173035 19.0267241,12.2103138 19.7534483,12.2103138 C20.6625,12.2103138 21.3918103,12.3173035 21.9392241,12.3173035 C22.1974138,12.3173035 22.3021552,12.2103138 22.3021552,12.0546132 C22.3021552,11.8175831 22.0943966,11.7666977 21.6521552,11.7392979 C20.8202586,11.6623175 20.2737069,11.3200373 20.2737069,10.6646163 C20.2737069,10.4014911 20.4038793,10.0074557 21.1336207,8.61615409 C21.3400862,8.22342342 21.5228448,8.04032308 21.8081897,8.04032308 L26.0211207,8.04032308 Z M25.7375,6.38720099 C25.8387931,6.5963964 25.9693966,6.78036657 25.9693966,6.8843119 C25.9693966,6.98869214 25.8922414,7.04305685 25.787069,7.04305685 L22.3293103,7.04305685 C22.224569,7.04305685 22.1465517,6.98869214 22.1465517,6.8843119 C22.1465517,6.78036657 22.275431,6.5963964 22.3810345,6.38720099 L23.8107759,3.71115253 C23.9672414,3.42149736 23.9922414,3.21012737 24.1228448,3.21012737 C24.2008621,3.21012737 24.2530172,3.39453246 24.4875,3.8677229 L25.7375,6.38720099 Z" id="Fill-18"></path>
                <path d="M41.9676724,6.75427151 L43.4241379,6.75427151 C44.0478448,6.75427151 44.2306034,6.85865176 45.0357759,8.06467847 L47.4288793,11.5040075 C47.8715517,12.1324635 48.3905172,12.2103138 48.7551724,12.2103138 L50.237069,12.2103138 C50.7581897,12.2103138 51.0956897,12.0015533 51.0956897,11.712333 C51.0956897,11.5040075 50.9655172,11.4496427 50.5237069,11.4496427 C49.9517241,11.4496427 49.5866379,11.3200373 49.0405172,10.5850264 L45.9202586,6.36067102 C46.9862069,6.02013048 48.4676724,5.52084498 48.4676724,3.57893756 C48.4676724,2.10935073 47.5068966,0.403603604 44.1258621,0.403603604 C43.2685345,0.403603604 42.3051724,0.508418764 40.9017241,0.508418764 C39.9646552,0.508418764 39.2357759,0.403603604 38.6905172,0.403603604 C38.4051724,0.403603604 38.1965517,0.483193538 38.1965517,0.745448897 C38.1965517,1.32432432 40.0711207,0.561913638 40.0711207,2.6082013 L40.0711207,10.4014911 C40.0711207,12.0546132 38.5090517,11.4252874 38.5090517,12.108543 C38.5090517,12.2390183 38.6133621,12.3173035 38.7693966,12.3173035 C39.549569,12.3173035 40.4594828,12.2103138 41.2909483,12.2103138 C42.0974138,12.2103138 42.9038793,12.3173035 43.6060345,12.3173035 C43.8918103,12.3173035 43.9693966,12.2103138 43.9693966,12.0798385 C43.9693966,11.6079528 41.9676724,12.0015533 41.9676724,10.6115564 L41.9676724,6.75427151 Z M41.9676724,2.2415657 C41.9676724,1.40043492 42.3590517,1.13817956 43.112069,1.13817956 C44.075,1.13817956 46.5711207,1.37564461 46.5711207,3.81466294 C46.5711207,5.31164958 45.7125,6.02013048 43.7857759,6.02013048 L41.9676724,6.02013048 L41.9676724,2.2415657 Z" id="Fill-19"></path>
                <path d="M59.7073276,2.21460081 C59.7073276,0.824168997 57.8336207,1.29648959 57.8336207,0.72065859 C57.8336207,0.508418764 57.9637931,0.403603604 58.1461207,0.403603604 C58.7961207,0.403603604 59.5237069,0.508418764 60.5905172,0.508418764 C61.7081897,0.508418764 62.4116379,0.403603604 62.8793103,0.403603604 C63.0099138,0.403603604 63.1646552,0.508418764 63.1646552,0.664989127 C63.1646552,1.13817956 61.6056034,0.955514135 61.6056034,2.37204101 L61.6056034,10.7694315 C61.6056034,11.3996272 61.9163793,11.5296676 63.399569,11.5296676 C67.1185345,11.5296676 67.5340517,9.53513514 67.8978448,9.53513514 C68.0258621,9.53513514 68.1568966,9.66604536 68.1568966,9.92917055 C68.1568966,12.4216838 66.025,12.3947189 64.9599138,12.3947189 C64.4655172,12.3947189 63.8159483,12.3690587 63.1896552,12.3173035 C62.5400862,12.2646785 61.8922414,12.2103138 61.3974138,12.2103138 C60.7719828,12.2103138 60.225,12.2390183 59.8112069,12.2646785 C59.3676724,12.2916434 59.0556034,12.3173035 58.7961207,12.3173035 C58.4323276,12.3173035 58.2762931,12.2916434 58.2762931,12.108543 C58.2762931,11.6079528 59.7073276,11.8702081 59.7073276,10.5576266 L59.7073276,2.21460081 Z" id="Fill-20"></path>
                <path d="M87.9788793,6.09798074 C87.9788793,2.86958683 85.7142241,0.298788444 81.5025862,0.298788444 C77.5788793,0.298788444 75.0021552,2.81783162 75.0021552,6.5963964 C75.0021552,10.2444859 77.7331897,12.4216838 81.5823276,12.4216838 C84.8844828,12.4216838 87.9788793,10.0074557 87.9788793,6.09798074 M85.9211207,6.46548618 C85.9211207,10.0074557 84.050431,11.6879776 81.737069,11.6879776 C79.0603448,11.6879776 77.0573276,9.66604536 77.0573276,6.25716061 C77.0573276,2.9230817 78.7732759,0.876794035 81.4008621,0.876794035 C83.8969828,0.876794035 85.9211207,2.84392669 85.9211207,6.46548618" id="Fill-21"></path>
                <path d="M101.342672,0.640633737 C101.863793,0.824168997 102.253879,0.982913948 102.485776,0.982913948 C103.087069,0.982913948 102.875,0.614538677 103.111207,0.614538677 C103.214224,0.614538677 103.268534,0.72065859 103.268534,0.902889096 C103.268534,1.27039453 103.214224,1.92668531 103.214224,2.47729108 C103.214224,2.9230817 103.268534,3.8677229 103.268534,4.26088847 C103.268534,4.49791861 103.111207,4.54880398 103.006897,4.54880398 C102.849569,4.54880398 102.747414,4.23522833 102.642241,3.92078285 C102.328879,3.00223672 101.654741,1.03379932 99.3918103,1.03379932 C98.0405172,1.03379932 97.0512931,1.74228021 97.0512931,2.89785648 C97.0512931,5.62522523 103.450431,4.81279901 103.450431,8.74880398 C103.450431,10.7694315 101.808621,12.4216838 99.1323276,12.4216838 C97.8586207,12.4216838 96.9991379,12.2390183 96.0387931,11.7392979 C95.6741379,11.5566325 95.649569,11.4496427 95.5939655,10.9777571 C95.5189655,10.1657658 95.1025862,8.82752408 95.1025862,8.30257844 C95.1025862,8.0925132 95.2297414,7.935073 95.412931,7.935073 C95.649569,7.935073 95.7508621,8.0925132 95.9086207,8.64398882 C96.2193966,9.71867039 97.4948276,11.6879776 99.4711207,11.6879776 C100.872414,11.6879776 101.993966,10.9529668 101.993966,9.53513514 C101.993966,6.5963964 95.5939655,7.46057782 95.5939655,3.68505747 C95.5939655,2.00453557 96.9482759,0.298788444 99.3918103,0.298788444 C100.145259,0.298788444 100.796121,0.457968313 101.342672,0.640633737" id="Fill-22"></path>
              </g>
            </g>
            <polygon id="divider-line" points="179.229741 47.8674744 180.069828 47.8674744 180.069828 2.10326188 179.229741 2.10326188"></polygon>
            <g id="Sheild">
              <path d="M1.72887931,0.274867971 L0.19612069,1.89972041 C0.177586207,3.07008388 0.15387931,4.54097546 0.143965517,5.26511339 C-0.00474137931,16.7647717 0.771982759,34.6525008 19.3137931,43.304753 C29.1271552,38.7181112 36.5512931,30.836968 38.5,18.6127369 C39.637069,11.5344517 38.9547414,4.81105934 38.9637931,0.290959925 L1.72887931,0.274867971 Z M19.4021552,41.9869525 C-0.686206897,32.6105623 1.72198276,11.6723206 1.73146552,1.88275862 L37.2818966,1.91842187 C37.2728448,11.7101584 39.5099138,32.6549239 19.4021552,41.9869525 Z" id="Fill-24"></path>
              <path d="M11.8081897,25.9771979 C10.3844828,27.5150668 8.97844828,29.0324946 8.50387931,29.5439578 C8.39482759,29.6618204 8.38405172,29.7827276 8.44956897,29.8553588 C8.54827586,29.9640882 8.68060345,30.1032619 8.73362069,30.1128301 C8.82155172,30.1319664 8.88448276,30.171109 9.03663793,30.0058403 C9.09913793,29.9353837 10.6646552,28.4101274 12.5137931,26.6139174 C12.5137931,26.6139174 12.3267241,26.5191053 12.1637931,26.3738428 C12.000431,26.225101 11.8081897,25.9771979 11.8081897,25.9771979" id="Fill-25"></path>
              <path d="M12.7616379,25.5692451 C13.125,25.923703 13.7159483,26.267288 13.7159483,26.267288 L13.3892241,26.5826033 C13.2668103,26.7182976 12.8073276,26.5038832 12.3637931,26.1068034 C11.9215517,25.7062442 11.6625,25.2704567 11.7866379,25.1356322 L12.1478448,24.8046598 C12.1478448,24.8046598 12.400431,25.2182665 12.7616379,25.5692451" id="Fill-26"></path>
              <path d="M29.0017241,29.5230817 C29.2931034,29.2264678 29.3086207,28.9524697 29.3086207,28.9524697 L29.6314655,29.1107797 C29.725,29.2121156 29.6465517,29.5887543 29.3478448,29.8840634 C29.049569,30.1780677 28.6443966,30.2780988 28.5482759,30.1758931 L28.3775862,29.8262193 C28.3775862,29.8262193 28.6969828,29.8314383 29.0017241,29.5230817" id="Fill-27"></path>
              <path d="M28.5146552,28.9963964 C28.7060345,28.8211246 28.7706897,28.5880087 28.7706897,28.5880087 L28.9793103,28.7332712 C29.049569,28.8059025 28.9862069,29.0442373 28.7676724,29.257347 C28.550431,29.4748058 28.2538793,29.5474371 28.1840517,29.4721963 L28.0612069,29.2408201 C28.0612069,29.2408201 28.3228448,29.1707984 28.5146552,28.9963964" id="Fill-28"></path>
              <path d="M29.5047414,12.6221808 L29.1284483,12.959242 C28.6107759,13.159739 27.4353448,12.2533706 26.5107759,11.4357254 C25.8922414,10.8890339 24.6512931,9.50860516 25.0047414,8.9510407 L25.1612069,8.79012116 C25.049569,8.72270892 24.9530172,8.66442995 24.8810345,8.62528736 C24.7784483,8.57005281 24.6405172,8.53091022 24.4844828,8.55048152 C24.3387931,8.56744331 24.2189655,8.62963653 24.2073276,8.75141348 C24.1810345,9.00018639 24.3232759,9.33028891 24.5202586,9.72171482 C24.7159483,10.1135756 25.4883621,11.2439267 27.0413793,12.4930103 C27.75,13.0644921 28.562931,13.4163405 29.149569,13.6329295 C29.2547414,13.6720721 29.6228448,13.7490525 29.7836207,13.5890028 C29.9469828,13.4246039 29.7659483,13.1366884 29.6418103,12.8605157 C29.6099138,12.7874495 29.5616379,12.7074247 29.5047414,12.6221808" id="Fill-29"></path>
              <path d="M14.5034483,13.5763902 C12.85,11.9189189 12.2211207,11.5331469 11.4767241,11.2100031 C11.0900862,11.04169 10.7038793,10.914694 10.5909483,10.9599254 C10.2659483,11.0830071 9.77974138,11.2987263 9.47758621,11.5657658 C9.26034483,11.7627835 9.28060345,11.854986 9.39913793,11.9189189 C9.51767241,11.9841566 10.3577586,12.1685617 11.1215517,12.5812985 C12.4633621,13.3019571 14.9775862,15.0694626 20.4612069,20.7890649 C23.2469828,23.6951848 27.6314655,28.1926685 27.6314655,28.1926685 L27.7435345,28.1026406 C27.7435345,28.1026406 21.3646552,20.8834421 16.3862069,15.5430879 C15.6788793,14.7845915 15.0581897,14.1348245 14.5034483,13.5763902 M13.3814655,6.77514756 C13.3801724,6.88996583 13.3801724,7.02131097 13.3801724,7.15657036 C13.3801724,7.53625349 13.7232759,10.6854924 15.5258621,12.9570674 C17.0788793,14.9159366 21.775431,20.5620379 22.5228448,21.4588381 C23.225,22.2986642 27.8297414,27.7333955 28.4094828,28.4231749 C28.4331897,28.4518795 28.4642241,28.4884126 28.4689655,28.4958062 C28.4711207,28.5005902 28.4060345,28.6432432 28.2689655,28.7550171 C28.1215517,28.8711401 27.9668103,28.8841876 27.9668103,28.8841876 C27.9487069,28.8711401 27.8456897,28.7624107 27.8262931,28.7406648 C27.6594828,28.5445169 19.7034483,20.5150668 18.9262931,19.75831 C18.1512931,19.0037279 14.0564655,14.9998757 12.3655172,13.9082324 C10.9012931,12.964461 10.2366379,12.436036 8.62974138,12.2994719 C8.62974138,12.2994719 7.48663793,12.2577198 7.40991379,12.2003107 C7.39525862,12.1903075 7.41681034,12.1394222 7.44439655,12.1276794 C8.1512931,11.8362846 9.6987069,10.9281765 10.9189655,9.75650823 C12.6314655,8.11817335 13.1758621,6.96999068 13.2612069,6.79210935 C13.2810345,6.74687791 13.3818966,6.73687481 13.3814655,6.77514756" id="Fill-30"></path>
              <path d="M10.1,9.20807704 C10.2801724,9.04802734 10.9439655,8.36825101 11.5034483,7.70587139 C12.0909483,7.00782852 12.4021552,6.38415657 12.4021552,6.38415657 C12.4021552,6.38415657 12.4909483,6.18844362 12.4762931,6.05405405 C12.4633621,5.94836906 12.3547414,5.90618204 12.3137931,5.86964896 C12.2512931,5.81354458 10.8189655,6.46722585 10.1862069,7.06306306 C10.1090517,7.1352594 9.97327586,7.42795899 9.90948276,7.64237341 C9.85387931,7.824169 10.3284483,8.3360671 10.0155172,9.11369991 C9.97241379,9.22068966 10.0732759,9.23286735 10.1,9.20807704 M9.59310345,10.1483691 C8.86594828,10.7637776 7.95818966,11.3287356 7.15431034,11.6584032 C6.64784483,11.8675986 5.93362069,11.6340478 6.44741379,10.6480895 C6.60301724,10.3497359 6.82456897,9.97831625 7.12931034,9.56992855 C8.08577586,8.28866107 9.79913793,6.7073004 11.4603448,5.80049705 C11.9650862,5.52519416 12.4314655,5.34774775 12.6418103,5.35992544 C13.0512931,5.38428083 13.074569,5.73438956 13,6.06362224 C12.8336207,6.78993476 11.6353448,8.41826654 9.59310345,10.1483691" id="Fill-31"></path>
              <path d="M18.8038793,20.218018 C18.4702586,20.5363778 13.300431,25.5405405 13.300431,25.5405405 C13.374569,25.6157813 13.5939655,25.7762659 13.5939655,25.7762659 C13.5939655,25.7762659 18.3400862,21.1748369 18.6939655,20.841255 C18.7905172,20.7507922 18.999569,20.5555141 19.0758621,20.4902765 L18.8038793,20.218018 Z" id="Fill-32"></path>
              <path d="M28.550431,14.0478409 C28.6228448,14.0404473 28.7012931,14.0356632 28.7676724,14.031749 C28.8443966,14.0273998 28.9469828,14.0078285 28.9646552,13.9917366 C29.0081897,13.9582479 29.037069,13.9082324 28.9512931,13.9069276 C28.7060345,13.8986642 28.2685345,13.7755825 27.7689655,13.5376825 C27.4633621,13.619882 26.9646552,13.7564461 26.375431,14.020876 C25.6301724,14.3570674 23.9974138,15.3438956 20.6551724,18.4374651 L20.9168103,18.7453868 C22.075431,17.6902765 23.624569,16.3107176 24.4672414,15.7548928 C25.9590517,14.7719789 27.0400862,14.3309724 27.7659483,14.1565704 C27.9806034,14.105685 28.3034483,14.0674122 28.550431,14.0478409" id="Fill-33"></path>
              <path d="M25.2948276,11.5931656 C24.3767241,10.6280833 24.0853448,9.93612923 23.9383621,9.42684063 C23.9327586,9.40726934 23.9262931,9.39074247 23.9215517,9.37812985 C23.9168103,9.37117117 23.8775862,9.36160298 23.8668103,9.40074557 C23.8612069,9.41988195 23.8543103,9.44423734 23.8525862,9.46337372 C23.7728448,10.4593352 23.862069,10.8772911 23.4465517,11.8949984 C23.0987069,12.7439578 22.4862069,13.825598 21.6452586,14.8124262 C21.1594828,15.3860826 20.3349138,16.324635 19.5767241,17.1983846 L20.1094828,17.8337993 C20.1607759,17.7729108 20.3306034,17.5937248 20.5241379,17.3845294 C23.0732759,14.63411 25.2926724,12.9296676 26.087931,12.3407891 C25.8,12.098105 25.5340517,11.8436782 25.2948276,11.5931656" id="Fill-34"></path>
              <path d="M17.7396552,19.2342342 C16.662931,20.4607021 15.5818966,21.6675986 15.2676724,22.019447 C15.0025862,22.3182355 12.650431,24.8698975 12.650431,24.8698975 C12.650431,24.8698975 12.7051724,24.9725381 12.7797414,25.0547375 C12.8530172,25.1378068 12.9771552,25.2491457 12.9771552,25.2491457 C12.9771552,25.2491457 17.9107759,20.1401678 18.2844828,19.7465673 L17.7396552,19.2342342 Z" id="Fill-35"></path>
              <path d="M26.1948276,8.21559491 C26.1948276,8.17645231 26.1991379,8.14209382 26.2008621,8.10425598 C25.9431034,8.03292948 25.7469828,8.04554209 25.6443966,8.1564461 C25.3206897,8.50959925 26.037931,9.70910221 27.2448276,10.8381485 C28.4521552,11.9663249 29.6943966,12.5965207 30.0159483,12.2442373 C30.1456897,12.1028891 30.1051724,11.8236719 29.9344828,11.4670395 C28.1801724,11.6723206 26.1948276,9.34899037 26.1948276,8.21559491" id="Fill-36"></path>
              <path d="M31.1668103,10.2788444 C31.0961207,10.4101895 30.8318966,10.7481205 30.4275862,10.9281765 C29.9810345,11.1251942 29.3849138,11.1560733 29.0767241,11.0590867 C27.6887931,10.6267785 26.8560345,9.19850885 26.8560345,9.19850885 C25.7633621,7.41404163 27.2284483,6.65250078 27.3508621,6.62684063 C27.3508621,6.62684063 27.1961207,7.21050016 27.2939655,7.60844983 C27.3788793,7.96508232 27.5883621,8.23951538 27.6543103,8.43740292 C27.7900862,8.8305685 27.6034483,9.1036968 27.5137931,9.23112768 C27.4637931,9.29853992 27.5931034,9.26157192 27.6219828,9.24200062 C27.6435345,9.22547375 27.6581897,9.20590245 27.7064655,9.17197888 C27.9073276,9.02019261 28.0922414,8.78359739 28.0344828,8.53482448 C27.9064655,7.9842187 27.5137931,7.63845915 27.9780172,6.50027959 C28.262069,5.8091954 28.9215517,5.12463498 28.9849138,5.08288288 C29.0875,5.01242622 29.1556034,4.92152842 29.1581897,4.99546443 C29.1594828,5.07070519 29.2788793,5.58303821 29.3400862,5.9148804 C29.4,6.24628767 29.7810345,6.92084498 29.6978448,7.85548307 C29.6155172,8.79012116 28.099569,9.81522212 27.8913793,9.88045977 C27.8228448,9.90307549 27.7168103,9.96657347 27.6887931,9.99092886 C27.6353448,10.0435539 27.712931,10.0557316 27.7491379,10.0622554 C27.8297414,10.0774775 28.4737069,9.92221187 28.9909483,9.55862069 C29.4237069,9.25330848 29.837069,8.79447033 29.9801724,8.52264678 C30.2443966,8.02031687 30.3732759,7.32444859 30.3987069,7.25790618 C30.4422414,7.1500466 30.487069,7.15483069 30.500431,7.21223983 C30.5142241,7.26877912 30.6219828,7.67847158 30.6633621,7.88766698 C30.6857759,8.00379 30.7521552,8.32693383 30.7538793,8.68400124 C30.7577586,9.38639329 30.5551724,9.71127679 30.1452586,10.0248524 C29.912069,10.2062131 29.6568966,10.2727555 29.3771552,10.3014601 L29.2797414,10.317552 C29.2405172,10.3249456 29.2047414,10.3366884 29.2905172,10.3788754 C29.3133621,10.391488 29.3491379,10.4001864 29.3883621,10.4201926 C29.6189655,10.5258776 30.1051724,10.5141348 30.4181034,10.3197266 C30.5594828,10.2305685 30.7525862,10.0922647 31.0125,9.836968 C31.1094828,9.74302578 31.2422414,9.56775396 31.2551724,9.62603293 C31.2737069,9.70736253 31.3008621,10.0244175 31.1668103,10.2788444 M31.6357759,8.66877912 C31.4650862,8.86666667 31.174569,9.32724449 30.999569,9.48337993 C31.1883621,9.31550171 31.2948276,8.90493942 31.0900862,7.83025784 C30.9461207,7.07741535 30.8538793,6.8277726 30.7551724,6.57986952 C30.7,6.43808636 30.6155172,6.47374961 30.5155172,6.58334887 C30.4206897,6.6899037 30.1956897,7.08132961 30.1896552,7.10351041 C30.1672414,7.19527804 30.1918103,7.11046909 29.8422414,6.02056539 C29.6219828,5.32861137 29.5293103,4.84541783 29.5392241,4.60273377 C29.5448276,4.47356322 29.5521552,4.33960857 29.5564655,4.24262193 C29.5616379,4.1582479 29.5133621,4.1582479 29.2956897,4.25436471 C29.1793103,4.30394532 28.2547414,4.95414725 27.8728448,5.93097235 C27.6517241,6.49636533 27.6353448,6.96216216 27.6012931,6.67816092 C27.5344828,6.1240758 27.5448276,6.1314694 27.4892241,6.14973594 C27.1836207,6.25150668 26.1146552,6.74078906 26.112069,8.19950295 C26.1116379,9.44119292 28.4258621,12.0728798 30.3064655,11.4766076 C30.3064655,11.4766076 31.7327586,11.2013048 31.7594828,9.90481516 C31.7857759,8.60615098 31.6357759,8.66877912 31.6357759,8.66877912" id="Fill-37"></path>
            </g>
            <g id="Emory" transform="translate(58.620690, 1.304753)">
              <path d="M56.9948276,23.4542404 C64.0241379,23.4542404 68.9025862,18.8349798 68.9025862,11.6801491 C68.9025862,5.09723517 63.9599138,0.417086052 57.5284483,0.417086052 C51.0625,0.417086052 45.9659483,5.22379621 45.9659483,11.8419385 C45.9659483,18.5483691 50.1469828,23.4542404 56.9948276,23.4542404 M56.5831897,1.47089158 C62.7331897,1.47089158 66.612069,7.10133582 66.612069,12.8883504 C66.612069,18.7710469 62.9219828,22.4917676 58.3150862,22.4917676 C52.0719828,22.4917676 48.2568966,16.8004349 48.2568966,10.9168686 C48.2568966,5.89139484 51.2849138,1.47089158 56.5831897,1.47089158" id="Fill-38"></path>
              <path d="M81.3025862,11.4174588 C83.4551724,10.5593663 85.1724138,8.48741845 85.1724138,6.0797142 C85.1724138,0.115688102 78.3926724,0.732836285 77.9017241,0.732836285 C76.3025862,0.732836285 74.5672414,0.859397328 72.8064655,0.859397328 C71.2426724,0.859397328 71.3952586,0.732836285 70.8461207,0.732836285 C70.4762931,0.732836285 70.237931,0.918111215 70.237931,1.10512582 C70.237931,2.15675676 72.8655172,0.888101895 72.8655172,3.85511028 L72.8655172,19.5686859 C72.8655172,21.9181112 70.6293103,21.4849332 70.6293103,22.2621311 C70.6293103,22.4469711 70.7577586,22.6022367 70.9357759,22.6022367 C72.0991379,22.6022367 73.2573276,22.4761106 74.412931,22.4761106 C76.9525862,22.4761106 77.6551724,22.6022367 77.9327586,22.6022367 C78.1741379,22.6022367 78.4512931,22.6648649 78.4512931,22.3547686 C78.4512931,21.3018329 75.2659483,22.2621311 75.2659483,19.5991302 L75.2659483,13.0727555 C75.2659483,12.7630941 75.0818966,12.2059646 76.0568966,12.2059646 C79.4952586,12.2059646 79.0353448,12.114197 80.1383621,13.8447344 L83.5431034,19.2594595 C84.7107759,21.021311 85.9025862,22.6022367 88.1340517,22.6022367 C88.412069,22.6022367 90.8353448,22.6022367 90.8353448,22.2299472 C90.8353448,21.4849332 88.6237069,22.632681 86.4219828,19.2268406 L81.3025862,11.4174588 Z M75.2659483,2.89742156 C75.2659483,1.69400435 75.9073276,1.75576266 77.0112069,1.75576266 C80.0193966,1.75576266 82.8646552,3.02093818 82.8646552,6.78993476 C82.8646552,10.6167754 79.9262931,11.1739049 78.6034483,11.1739049 C77.1642241,11.1739049 75.2659483,11.3248214 75.2659483,10.7411619 L75.2659483,2.89742156 Z" id="Fill-39"></path>
              <path d="M90.2413793,2.67474371 C89.4461207,1.34520037 87.9465517,1.71662007 87.9465517,1.19297919 C87.9465517,0.97508543 88.1306034,0.72805219 88.3478448,0.72805219 C89.1737069,0.72805219 89.7517241,0.860702081 91.8314655,0.860702081 C92.8392241,0.860702081 93.6672414,0.72805219 93.9724138,0.72805219 C94.1857759,0.72805219 94.550431,0.761540851 94.550431,1.03814849 C94.550431,1.56222429 93.1159483,1.59092886 93.1159483,2.4899037 C93.1159483,2.98353526 93.4818966,3.47716682 93.6672414,3.75594905 L97.3568966,9.7212799 C97.5991379,10.0909599 97.7827586,10.2775396 97.9663793,10.2775396 C98.1142241,10.2775396 98.2978448,10.0600808 98.5392241,9.65908667 L101.689655,4.49748369 C101.903017,4.15998757 102.332759,3.63286735 102.332759,2.79826033 C102.332759,1.28474682 100.043103,1.9314694 100.043103,1.19297919 C100.043103,0.791550171 100.344397,0.72805219 100.681034,0.72805219 C101.412931,0.72805219 102.180603,0.860702081 102.9125,0.860702081 C103.798276,0.860702081 104.683621,0.72805219 105.568534,0.72805219 C105.752586,0.72805219 105.906034,0.946815781 105.906034,1.09860205 C105.906034,1.43957751 105.391379,1.56222429 105.172414,1.68704567 C104.353017,2.18067723 103.950862,3.04529357 103.460776,3.81944703 L99.1827586,10.5558869 C98.6926724,11.3278658 98.449569,11.4831314 98.449569,11.9467537 L98.449569,19.5169307 C98.449569,22.2060267 100.959052,21.3396707 100.959052,22.2986642 C100.959052,22.5757067 100.681034,22.6070208 100.255172,22.6070208 C99.7952586,22.6070208 98.0189655,22.4726313 96.900431,22.4726313 C95.5314655,22.4726313 94.4280172,22.6070208 94.1543103,22.6070208 C93.8788793,22.6070208 93.6961207,22.5757067 93.6961207,22.236036 C93.6961207,21.3709848 96.050431,22.1738428 96.050431,19.9796831 L96.050431,12.5012737 C96.050431,11.9158745 95.5909483,11.2965517 95.3482759,10.9268717 L90.2413793,2.67474371 Z" id="Fill-40"></path>
              <path d="M42.4788793,19.7504815 C42.6306034,22.3430258 44.8926724,21.2000621 44.8926724,22.2803976 C44.8926724,22.5891892 44.4913793,22.5891892 44.1599138,22.5891892 C43.5762931,22.5891892 42.5077586,22.452625 41.2909483,22.452625 C40.3465517,22.452625 39.3659483,22.5891892 38.6443966,22.5891892 C38.3724138,22.5891892 38.3081897,22.4343585 38.3081897,22.3112768 C38.3081897,21.3835974 40.237069,22.0642436 40.2030172,19.7822305 L39.3711207,7.81460081 C39.3711207,7.04218701 39.2176724,6.61074868 39.0353448,6.61074868 C38.8176724,6.61074868 38.5405172,6.88779124 38.2327586,7.53625349 L31.9017241,20.5537745 C31.7469828,20.8290774 31.2581897,22.0951227 30.950431,22.0951227 C30.6443966,22.0951227 30.4323276,21.4157813 30.337069,21.2000621 L23.8215517,7.44361603 C23.7262931,7.19614787 23.5741379,7.10351041 23.450431,7.10351041 C23.3612069,7.10351041 23.2668103,7.25921094 23.2431034,7.56756757 L22.3474138,18.3944082 C22.1926724,22.4948121 25.0931034,21.137434 25.0931034,22.2503883 C25.0931034,22.558745 24.7573276,22.5891892 24.3262931,22.5891892 C23.9306034,22.5891892 22.5556034,22.452625 21.6551724,22.452625 C20.0663793,22.452625 19.5456897,22.5891892 18.9534483,22.5891892 C18.7353448,22.5891892 18.6469828,22.4343585 18.6469828,22.2182044 C18.6469828,21.1678782 20.6008621,22.4343585 20.8137931,19.2229264 C21.1849138,14.1839702 21.5512931,10.9077353 21.5512931,7.63410997 C21.5512931,0.371419696 19.1823276,2.10152221 19.1823276,1.05119602 C19.1823276,0.775023299 19.4232759,0.711090401 19.700431,0.711090401 C20.249569,0.711090401 20.7991379,0.845479963 21.3827586,0.845479963 C21.9318966,0.845479963 22.4767241,0.711090401 23.0146552,0.711090401 C23.4456897,0.711090401 23.5051724,1.2351662 23.6581897,1.57614166 L30.9607759,17.2744952 C31.3025862,17.9225225 31.4206897,18.2013048 31.6392241,18.2013048 C31.7918103,18.2013048 32.0943966,17.5528425 32.587931,16.5320907 L39.887069,1.76098167 C40.0646552,1.42131097 40.3107759,0.679776328 40.6724138,0.711090401 C40.9797414,0.711090401 41.9538793,0.845479963 42.1030172,0.845479963 C42.8099138,0.845479963 43.0831897,0.711090401 43.5715517,0.711090401 C43.7551724,0.711090401 43.8788793,0.896365331 43.8788793,1.08120534 C43.8788793,2.06977322 41.4293103,0.742839391 41.5547414,4.42006834 L42.4788793,19.7504815 Z" id="Fill-41"></path>
              <path d="M5.29181034,9.73998136 C5.29181034,10.7911774 5.23232759,10.7911774 6.45,10.7911774 L9.74913793,10.7911774 C12.9172414,10.7911774 12.1021552,8.31736564 12.825,8.31736564 C13.0676724,8.31736564 13.1560345,8.65660143 13.1560345,8.90363467 C13.1560345,9.98831935 13.1168103,11.036036 13.1168103,12.0141659 C13.1168103,12.816589 13.1560345,13.6216216 13.1560345,14.4553588 C13.1560345,14.734576 13.0375,14.8563529 12.825,14.8563529 C11.8844828,14.8563529 12.9172414,12.1363778 10.3603448,12.1363778 L5.84008621,12.1363778 C5.19741379,12.1363778 5.29181034,12.6643678 5.29181034,13.1266853 L5.29181034,18.8123641 C5.29181034,20.6368437 5.05,21.3783784 7.6125,21.3783784 C14.6547414,21.3783784 15.6931034,18.1939112 16.0892241,18.1939112 C16.3012931,18.1939112 16.3323276,18.5040075 16.3323276,18.5648959 C16.3323276,19.6782852 15.5392241,20.7581858 14.8086207,21.5645231 C13.8293103,22.6866107 13.1560345,22.6257223 11.8241379,22.6257223 C9.50215517,22.6257223 7.1862069,22.4360982 4.86637931,22.4965517 C3.64956897,22.5300404 2.36810345,22.6257223 1.15043103,22.6257223 C0.872844828,22.6257223 0.69137931,22.5604846 0.69137931,22.3130165 C0.75,21.9376825 1.05818966,21.9990059 2.0362069,21.4992855 C2.82758621,21.1309102 2.89267241,20.2645542 2.89267241,18.8123641 L2.89267241,4.72799006 C2.89267241,3.33538366 2.89267241,1.85013979 1.24051724,1.60136688 C0.997844828,1.54047841 0.325,1.48002485 0.325,1.1220876 C0.325,0.875489282 0.507758621,0.751972662 1.39310345,0.751972662 C7.15172414,0.751972662 8.74051724,0.882882883 10.0237069,0.882882883 C10.6331897,0.882882883 13.4336207,0.751972662 14.3827586,0.751972662 C14.624569,0.751972662 14.6849138,1.05989438 14.6849138,1.42913948 C14.6849138,4.86020503 14.2586207,5.10810811 14.075431,5.10810811 C13.3383621,5.10810811 13.8293103,3.62373408 13.3383621,2.91394843 C12.5517241,1.86231749 9.38362069,2.04628767 8.1612069,2.04628767 C5.23232759,2.04628767 5.29181034,1.92277105 5.29181034,3.99471886 L5.29181034,9.73998136 Z" id="Fill-42"></path>
            </g>
          </g>
        </g>
      </g>
    </g>
  </g>
</svg>